<?xml version="1.0" encoding="utf-8"?>
<!-- Generator: Adobe Illustrator 28.0.0, SVG Export Plug-In . SVG Version: 6.00 Build 0)  -->
<svg version="1.1" id="svg2311" xmlns:svg="http://www.w3.org/2000/svg"
	 xmlns="http://www.w3.org/2000/svg" xmlns:xlink="http://www.w3.org/1999/xlink" x="0px" y="0px" viewBox="0 0 1024 329"
	 style="enable-background:new 0 0 1024 329;" xml:space="preserve">
<style type="text/css">
	.st0{fill:#262626;}
</style>
<path class="st0" d="M1011.7,164.8C1010.6,81,943.1,13.3,859.3,12.5H168.4c-85.3-1.1-155.2,67.2-156,152.3s67.2,154.9,152.3,156h3.7
	h690.9C944.4,319.7,1012.7,249.9,1011.7,164.8z M982.7,171.3c-2.4,67.2-56.4,121.2-123.6,123.6H168.4C97.4,294.9,40,237.5,40,166.8
	C40,95.8,97.4,38.4,168.4,38.4h690.7C930,41,985.3,100.6,982.7,171.3z"/>
<g>
	<path class="st0" d="M456.5,117.4h-26.8V153h26.5v0.2c2,0,3.5-1.5,3.5-3.3v-29.2C459.8,118.9,458.2,117.4,456.5,117.4z"/>
	<polygon class="st0" points="226.5,180.2 259.1,180.2 243,140.9 	"/>
	<path class="st0" d="M965.1,165c-0.9-58.1-47.7-104.9-105.8-105.8H168.4C109.2,58.4,60.4,105.8,59.6,165
		c-0.9,59.2,46.6,107.9,105.8,108.8h3h690.9C918.5,273,966,224.2,965.1,165z M347.3,243.1H285l-14.6-35.7h-55.3l-15,35.7h-47.9v-27
		h11.1l41.3-98.6h-11.3V90.2h91l51.8,126h11.1V243.1z M519.8,153.7c-0.4,7.2-6.3,12.8-13.7,12.8c7.6,0.2,13.7,6.3,13.7,13.9v0v49.2
		c0,7.6-6.1,13.7-13.7,13.7h-148v-27.2h11.1v-98.8h-11.1V90.2h148c7.6,0,13.7,6.1,13.7,13.7V153.7z M703.7,117.4h-11.1v112.1
		c0,7.6-6.1,13.7-13.7,13.7H555.7c-7.6,0-13.7-6.1-13.7-13.7V117.4h-11.1V90.2h71.2v122.5c0,2,1.5,3.5,3.5,3.5h23.5v0
		c2,0,3.5-1.5,3.5-3.5V90.2h71.2V117.4z M865.4,128.5h-60.1v-7.6c0-2-1.5-3.5-3.5-3.5h-23.5c-2,0-3.5,1.5-3.5,3.5v32.4h90.5v76.2
		c0,7.6-6.1,13.7-13.7,13.7H728.5c-7.6,0-13.7-6.1-13.7-13.7v-24.6h60.1v7.8c0,2,1.5,3.5,3.5,3.5h23.5c1.7-0.2,3.3-1.7,3.3-3.5
		v-32.4h-90.3v-76.4c0-7.6,6.1-13.7,13.7-13.7h123.2c7.6,0,13.7,6.1,13.7,13.7V128.5z"/>
	<path class="st0" d="M456.5,180.2h-26.8v35.9h26.5c2,0,3.5-1.5,3.5-3.3v-29.2C459.8,181.8,458.2,180.2,456.5,180.2z"/>
</g>
</svg>
