<?xml version="1.0" encoding="UTF-8"?><svg id="Layer_1" xmlns="http://www.w3.org/2000/svg" viewBox="0 0 941.78 666.55"><defs><style>.cls-1{fill:#262626;stroke-width:0px;}</style></defs><path class="cls-1" d="m473.2,21.75c-175.92,0-335.19,34.87-450.55,91.25v441.6c115.36,56.38,274.63,91.25,450.55,91.25s330.24-33.86,445.16-88.74V110.49c-114.92-54.88-271.92-88.74-445.16-88.74Zm412.78,510.44c-106.15,48.96-251.17,68.71-411.19,68.71s-309.61-20.66-416.17-70.97V135.86c106.56-50.31,253.68-70.96,416.17-70.96s305.04,19.74,411.19,68.71v398.56Z"/><polygon class="cls-1" points="805.94 474.09 769.07 483.99 770.86 299.63 729.5 404.84 683.64 302.33 682.74 502.88 627.88 507.38 627.88 145.85 686.33 151.24 728.6 276.25 772.67 171.93 808.63 177.32 805.94 474.09"/><path class="cls-1" d="m475.32,133.24c-50.84,0-92.04,29.68-92.04,82.81v114.13h.01v119.53c0,47.74,41.19,82.81,92.07,82.81s92.04-29.68,92.04-82.81v-233.66c0-47.74-41.2-82.81-92.07-82.81Zm41.05,300.56c0,19.86-18.52,35.97-41.37,35.97s-41.36-16.1-41.36-35.97v-208.81c0-19.87,18.52-35.97,41.36-35.97s41.37,16.11,41.37,35.97v208.81Z"/><path class="cls-1" d="m281.38,157.74c-25.85-11.08-52.6-4.62-52.6-4.62l-99.67,20.3v308.21l99.67,20.31s26.76,6.45,52.6-4.63c0,0,29.53-10.14,32.3-39.68V197.42c-2.77-29.53-32.3-39.68-32.3-39.68Zm-18.17,261.05c0,19.33-8.55,23.39-15.29,26.98-10.59,5.64-27.43,3.14-27.43,3.14l-36.87-5.4.45-234.27,36.42-4.95s14.17-3.3,26.32,1.91c0,0,14.6,7.09,15.18,29.44.45,17.22,1.22,183.15,1.22,183.15Z"/></svg>