<?xml version="1.0" encoding="utf-8"?>
<!-- Generator: Adobe Illustrator 28.0.0, SVG Export Plug-In . SVG Version: 6.00 Build 0)  -->
<svg version="1.1" id="svg4326" xmlns:svg="http://www.w3.org/2000/svg"
	 xmlns="http://www.w3.org/2000/svg" xmlns:xlink="http://www.w3.org/1999/xlink" x="0px" y="0px" viewBox="0 0 657 228.4"
	 style="enable-background:new 0 0 657 228.4;" xml:space="preserve">
<style type="text/css">
	.st0{fill:#262626;}
</style>
<g>
	<path id="path4147" class="st0" d="M532.7,224.7h118.8v-81.2L532.7,224.7z M585.3,143.5l-69.9,81.2l88.1-60.1L585.3,143.5z
		 M515.3,143.5v66.3l36-41.8L515.3,143.5z"/>
	<path class="st0" d="M275.1,143.5v8.5c-5.2-6.6-12.5-10.6-23.8-10.6c-23.1,0-40.6,18.3-40.6,42.7c0,24.3,17.5,42.7,40.6,42.7
		c11.2,0,18.5-3.9,23.8-10.7v8.7h19.4v-81.2H275.1z M253.4,208.4c-13.4,0-22.8-10-22.8-24.3c0-14.3,9.4-24.3,22.8-24.3
		c13.4,0,22.8,10,22.8,24.3C276.2,198.4,266.8,208.4,253.4,208.4z"/>
	<path class="st0" d="M466.9,143.5v8.5c-5.2-6.6-12.5-10.6-23.8-10.6c-23.1,0-40.6,18.3-40.6,42.7c0,24.3,17.4,42.7,40.6,42.7
		c11.2,0,18.5-3.9,23.8-10.7v8.7h19.4v-81.2H466.9z M445.2,208.4c-13.4,0-22.8-10-22.8-24.3c0-14.3,9.4-24.3,22.8-24.3
		s22.8,10,22.8,24.3C468,198.4,458.6,208.4,445.2,208.4z"/>
	<path class="st0" d="M354.7,141.5c-9.6,0-17.7,3.3-23.7,9.7v-31.9h-19.4v105.5H331V216c5.3,7.1,13.6,10.7,23.7,10.7
		c23.1,0,40.6-18.3,40.6-42.7C395.3,159.8,377.9,141.5,354.7,141.5z M352.7,208.4L352.7,208.4L352.7,208.4L352.7,208.4
		c-13.4,0-22.8-10-22.8-24.3c0-14.3,9.4-24.3,22.8-24.3s22.8,10,22.8,24.3C375.5,198.4,366.1,208.4,352.7,208.4z"/>
	<polygon class="st0" points="213.6,143.5 189.1,143.5 163,173.6 155.9,173.6 155.9,119.2 136.4,119.2 136.4,224.7 155.9,224.7 
		155.9,191.4 162.9,191.4 189.2,224.7 213.8,224.7 179.5,181.8 	"/>
	<g>
		<path class="st0" d="M217.2,33.4v-6.9H198v81.2h19.4V63.2c0-12.2,7-20.2,17.8-20.2c4.3,0,9,1,12.3,2.6l4.6-19.1
			c-3.8-1.4-7.8-2-12.9-2C229.9,24.5,222.4,27.6,217.2,33.4"/>
		<path class="st0" d="M466.9,26.5V35h0c-5.2-6.6-12.5-10.6-23.8-10.6c-23.1,0-40.6,18.3-40.6,42.7c0,24.3,17.4,42.7,40.6,42.7
			c11.2,0,18.5-3.9,23.8-10.7v8.7h19.4V26.5H466.9z M445.2,91.4c-13.4,0-22.8-10-22.8-24.3c0-14.3,9.4-24.3,22.8-24.3
			c13.4,0,22.8,10,22.8,24.3C468,81.4,458.6,91.4,445.2,91.4z"/>
		<path class="st0" d="M359.4,24.5c-9.2,0-21.5,2.3-28.9,13.2c-5.9-8.4-15.8-13.2-27.3-13.2c-7,0-16.4,1.8-23.2,9.7v-7.6h-19.3v81.2
			h19.4V62.8c0-13.7,9.7-19.8,19.4-19.8c11,0,17.4,7.2,17.4,19.7v45h19.4V62.8c0-13.7,9.8-19.8,19.4-19.8c11,0,17.4,7.2,17.4,19.7
			v45h19.4V57C392.6,37.8,379,24.5,359.4,24.5"/>
		<path class="st0" d="M143.3,24.5c-24.8,0-43.6,18.3-43.6,42.7c0,24.3,18.7,42.7,43.6,42.7c24.9,0,43.6-18.3,43.6-42.7
			C186.9,42.8,168.2,24.5,143.3,24.5z M143.3,91.4c-13.7,0-23.7-10.2-23.7-24.3c0-14.1,10-24.3,23.7-24.3
			c13.8,0,23.8,10.2,23.8,24.3C167.1,81.2,157.1,91.4,143.3,91.4z"/>
		<path class="st0" d="M69.9,2.2v32.1c-6-6.4-14.2-9.8-23.8-9.8c-23.1,0-40.6,18.3-40.6,42.7c0,24.3,17.4,42.7,40.6,42.7
			c12,0,18.1-4.1,23.8-10.7v8.7h19.4V2.2H69.9z M48.1,91.4c-13.4,0-22.8-10-22.8-24.3c0-14.3,9.4-24.3,22.8-24.3
			c13.4,0,22.8,10,22.8,24.3C70.9,81.4,61.5,91.4,48.1,91.4z"/>
	</g>
</g>
</svg>
