<?xml version="1.0" encoding="utf-8"?>
<!-- Generator: Adobe Illustrator 28.0.0, SVG Export Plug-In . SVG Version: 6.00 Build 0)  -->
<svg version="1.1" id="svg2" xmlns:svg="http://www.w3.org/2000/svg"
	 xmlns="http://www.w3.org/2000/svg" xmlns:xlink="http://www.w3.org/1999/xlink" x="0px" y="0px" viewBox="0 0 568 379"
	 style="enable-background:new 0 0 568 379;" xml:space="preserve">
<style type="text/css">
	.st0{fill:#262626;}
</style>
<g>
	<path class="st0" d="M216.8,230.2c-11.5,0-17.3,9-17.3,14.3c0,2.4,0,32.7,0,32.7h35.4c0,0,0-29.8,0-32.7
		C234.9,240,228.3,230.2,216.8,230.2z"/>
	<path class="st0" d="M6.4,4.8v367.2h556.9V4.8H6.4z M429.7,19.1l41.9,0.1l0,60.8l-0.1,4.8l28-66.1h47.6l-32.3,67.8l34.4,92.5
		l-43.7,0l-24.1-71l-9,20.2V179l-42.7,0h0V19.1z M234.4,18.6l40.1,0.1l0,161l-40.1,0.1L234.4,18.6z M19.5,19.1h44.7l0,113
		c1,9,7,12,12.8,13.3c5.1,0.6,10.2-0.6,14.1-4.4c5.6-5.5,5.2-13.6,5.1-24.1V18.6h45.6l0,113.6c-0.1,4,5.9,12.8,15.5,12.8
		c5.6-0.4,10.6-0.6,14.5-10l0.4-6.1V18.6h43.5l0,120.1c-1.4,24.8-18.7,38.9-42.9,43.8c-24.2,5-39.7-1.9-53.7-14.1
		c-20.1,13.9-41,21.7-68.4,9.7c-27.3-12-32.6-32.2-31.3-57.5C19.3,80.8,19.5,56.4,19.5,19.1z M139.1,359.3H96.9v-60.6H61.6v60.6
		H19.5l-0.1-161.8h42.4l0,60.1l35.3,0v-60.1h42.2V359.3z M275.6,359.3L275.6,359.3h-40.9l-0.1-40.1l-34.4,0.1l0,40h-42.7l0-116.1
		c0-10.5,8.5-49,60.7-49c52.2,0,57.3,46.6,57.3,53.9V359.3z M352.9,359.3c-54.4,0-59.7-42.7-59.7-55.7c0-12.9-0.1-106.2-0.1-106.2
		h40.7l0,106.2c0.4,9.3,5.1,17.8,19.1,17.8c18.2,0.1,18-17.8,18-17.8v-106h40.5c0,0,0,95.7,0,106C411.3,314,407.3,359.3,352.9,359.3
		z M412.4,178.9h-39.7l-37.8-86.7l-0.1,86.7v0h-41.9V18.6h41.3l37.6,87.4V18.6h40.6V178.9z M532.8,347.5
		c-14.2,10.8-37.2,11.7-39.9,11.8h-66.6v-40.9l71.9,0c9.3-1,15.1-11.8,7.2-19.3c-7.9-7.5-38-1-55.2-11.1
		c-9.6-5.6-23.9-14.1-23.9-44.3c0-38.2,34.5-42.9,38.1-43.6c10.5-1.8,17.5-2.3,26.9-2.7c17.1-0.7,34.7,0.5,52.6,0v37h-64.3
		c-7.8,0.2-15.2,7.4-9.5,18.2c5.7,10.7,31.9-0.1,59.2,11.7c9.9,4.3,20.8,20.6,20.7,43.1C549.8,318.7,545.6,337.8,532.8,347.5z"/>
</g>
</svg>
